<svg xmlns="http://www.w3.org/2000/svg" style="display:none">
  <symbol id="icon-apple" viewBox="0 0 16 16">
    <rect width="16" height="16" fill="#111"/>
    <path fill="#63ba4e" d="M8 2 10 6h4l-3 3 1 5-4-2-4 2 1-5-3-3h4z"/>
  </symbol>
  <symbol id="icon-terminal" viewBox="0 0 16 16">
    <rect x="1" y="2" width="14" height="12" fill="#c0c0c0" stroke="#404040"/>
    <rect x="2" y="3" width="12" height="2" fill="#fff"/>
    <rect x="3" y="7" width="5" height="1" fill="#0066cc"/>
    <rect x="3" y="9" width="8" height="1" fill="#111"/>
    <rect x="3" y="11" width="6" height="1" fill="#111"/>
  </symbol>
  <symbol id="icon-folder" viewBox="0 0 16 16">
    <rect x="1" y="4" width="14" height="10" fill="#fbd905" stroke="#404040"/>
    <rect x="1" y="2" width="7" height="3" fill="#ff9500" stroke="#404040"/>
  </symbol>
  <symbol id="icon-doc" viewBox="0 0 16 16">
    <rect x="3" y="1" width="10" height="14" fill="#fff" stroke="#404040"/>
    <rect x="5" y="4" width="6" height="1" fill="#404040"/>
    <rect x="5" y="6" width="6" height="1" fill="#404040"/>
    <rect x="5" y="8" width="4" height="1" fill="#404040"/>
  </symbol>
  <symbol id="icon-profile" viewBox="0 0 16 16">
    <rect x="2" y="2" width="12" height="12" fill="#0066cc" stroke="#404040"/>
    <rect x="5" y="5" width="6" height="1" fill="#fff"/>
    <rect x="5" y="7" width="6" height="1" fill="#fff"/>
    <rect x="5" y="9" width="4" height="1" fill="#fff"/>
  </symbol>
  <symbol id="icon-audit" viewBox="0 0 16 16">
    <rect x="2" y="1" width="12" height="14" fill="#ece9e4" stroke="#404040"/>
    <rect x="4" y="4" width="8" height="1" fill="#63ba4e"/>
    <rect x="4" y="6" width="8" height="1" fill="#404040"/>
    <rect x="4" y="8" width="8" height="1" fill="#404040"/>
    <rect x="4" y="10" width="5" height="1" fill="#404040"/>
  </symbol>
</svg>
