<svg xmlns="http://www.w3.org/2000/svg" viewBox="0 0 1200 320" role="img" aria-label="Lambda Terminal">
  <defs>
    <linearGradient id="paper" x1="0" y1="0" x2="0" y2="1">
      <stop offset="0%" stop-color="#ffffff"/>
      <stop offset="100%" stop-color="#d4d0c8"/>
    </linearGradient>
    <linearGradient id="screen" x1="0" y1="0" x2="1" y2="1">
      <stop offset="0%" stop-color="#282a36"/>
      <stop offset="100%" stop-color="#1d1f29"/>
    </linearGradient>
  </defs>
  <rect width="1200" height="320" fill="url(#paper)"/>
  <rect y="316" width="1200" height="4" fill="#63ba4e"/>
  <rect y="316" width="200" height="4" fill="#63ba4e"/>
  <rect x="200" y="316" width="200" height="4" fill="#fbd905"/>
  <rect x="400" y="316" width="200" height="4" fill="#ff9500"/>
  <rect x="600" y="316" width="200" height="4" fill="#ff0801"/>
  <rect x="800" y="316" width="200" height="4" fill="#9700c9"/>
  <rect x="1000" y="316" width="200" height="4" fill="#0066cc"/>
  <g transform="translate(430, 36)">
    <rect width="340" height="230" fill="#c0c0c0" stroke="#404040" stroke-width="2"/>
    <rect y="0" width="340" height="22" fill="#d4d0c8" stroke="#404040" stroke-width="1"/>
    <rect x="8" y="6" width="10" height="10" fill="#ffffff" stroke="#404040"/>
    <text x="170" y="16" text-anchor="middle" font-family="Chicago, Geneva, monospace" font-size="11" fill="#111111">» Terminal</text>
    <rect x="8" y="28" width="324" height="194" fill="url(#screen)"/>
    <text x="18" y="52" font-family="ui-monospace, Menlo, monospace" font-size="13" fill="#50fa7b">sqazi@MacBook:~/Git%</text>
    <text x="18" y="74" font-family="ui-monospace, Menlo, monospace" font-size="12" fill="#f8f8f2">Zsh configuration loaded successfully!</text>
    <text x="18" y="96" font-family="ui-monospace, Menlo, monospace" font-size="12" fill="#6272a4">profiles: default · dev · lightweight · ai</text>
    <text x="18" y="118" font-family="ui-monospace, Menlo, monospace" font-size="12" fill="#bd93f9">XDG env injected · cwd remembered</text>
    <rect x="18" y="132" width="8" height="14" fill="#ff5555"/>
  </g>
  <text x="600" y="300" text-anchor="middle" font-family="Helvetica Neue, Helvetica, Arial, sans-serif" font-size="24" fill="#1d1d1f" font-weight="600">» Terminal</text>
  <text x="600" y="318" text-anchor="middle" font-family="Helvetica Neue, Helvetica, Arial, sans-serif" font-size="13" fill="#6e6e73">Profiles · XDG · Session semantics</text>
</svg>
